<svg xmlns="http://www.w3.org/2000/svg" xmlns:xlink="http://www.w3.org/1999/xlink" width="500" zoomAndPan="magnify" viewBox="0 0 375 374.999991" height="500" preserveAspectRatio="xMidYMid meet" version="1.0"><defs><g/><clipPath id="e73891fb4c"><path d="M 67.949219 65.390625 L 307.199219 65.390625 L 307.199219 192.890625 L 67.949219 192.890625 Z M 67.949219 65.390625 " clip-rule="nonzero"/></clipPath></defs><rect x="-37.5" width="450" fill="#ffffff" y="-37.499999" height="449.999989" fill-opacity="1"/><rect x="-37.5" width="450" fill="#ffffff" y="-37.499999" height="449.999989" fill-opacity="1"/><rect x="-37.5" width="450" fill="#000000" y="-37.499999" height="449.999989" fill-opacity="1"/><g clip-path="url(#e73891fb4c)"><path fill="#ffffff" d="M 303.867188 76.339844 L 291.726562 76.339844 L 289.820312 74.441406 C 283.871094 68.984375 274.109375 65.664062 263.875 65.664062 L 111.277344 65.664062 C 101.039062 65.664062 91.28125 68.984375 85.328125 74.441406 L 83.425781 76.339844 L 71.285156 76.339844 C 70.332031 76.339844 69.378906 76.816406 68.902344 77.527344 C 68.1875 78.003906 67.949219 78.953125 67.949219 79.902344 L 76.757812 161.054688 C 76.757812 161.292969 76.757812 161.53125 76.996094 161.769531 L 83.1875 189.769531 C 83.664062 191.429688 85.089844 192.855469 86.996094 192.855469 L 288.394531 192.855469 C 290.296875 192.855469 291.726562 191.667969 292.203125 189.769531 L 298.390625 161.769531 C 298.390625 161.53125 298.390625 161.292969 298.628906 161.054688 L 307.199219 79.902344 C 307.199219 78.953125 306.960938 78.003906 306.25 77.289062 C 305.773438 76.578125 304.820312 76.339844 303.867188 76.339844 Z M 111.277344 71.359375 L 263.875 71.359375 C 271.253906 71.359375 277.917969 73.257812 282.679688 76.339844 L 92.46875 76.339844 C 97.230469 73.257812 104.136719 71.359375 111.277344 71.359375 Z M 104.375 187.160156 L 88.421875 187.160156 L 83.1875 163.902344 L 104.375 163.902344 C 102.46875 171.496094 102.46875 179.328125 104.375 187.160156 Z M 264.824219 187.160156 L 110.085938 187.160156 C 107.945312 179.328125 107.945312 171.496094 110.085938 163.902344 L 264.824219 163.902344 C 266.96875 171.496094 266.96875 179.328125 264.824219 187.160156 Z M 286.726562 187.160156 L 270.539062 187.160156 C 272.445312 179.328125 272.445312 171.496094 270.539062 163.902344 L 291.726562 163.902344 Z M 292.917969 158.210938 L 82.234375 158.210938 L 73.902344 81.800781 L 301.25 81.800781 Z M 292.917969 158.210938 " fill-opacity="1" fill-rule="nonzero"/></g><path fill="#ffffff" d="M 236.257812 111.699219 C 235.78125 110.039062 234.355469 108.851562 232.449219 108.851562 L 142.464844 108.851562 C 140.796875 108.851562 139.128906 110.039062 138.652344 111.699219 L 129.371094 143.734375 L 245.542969 143.734375 Z M 143.890625 114.546875 L 231.257812 114.546875 L 238.164062 138.039062 L 136.988281 138.039062 Z M 143.890625 114.546875 " fill-opacity="1" fill-rule="nonzero"/><g fill="#ffffff" fill-opacity="1"><g transform="translate(26.293361, 265.333493)"><g><path d="M 34.597656 -21.289062 C 34.597656 -18.363281 32.199219 -15.96875 29.273438 -15.96875 L 7.984375 -15.96875 L 7.984375 -31.933594 L 29.273438 -31.933594 C 32.199219 -31.933594 34.597656 -29.539062 34.597656 -26.613281 Z M 39.917969 -26.613281 C 39.757812 -32.519531 34.96875 -37.257812 29.273438 -37.257812 L 2.660156 -37.257812 L 2.660156 0 L 7.984375 0 L 7.984375 -10.644531 L 29.273438 -10.644531 C 35.234375 -10.644531 39.917969 -15.648438 39.917969 -21.289062 Z M 39.917969 -26.613281 "/></g></g></g><g fill="#ffffff" fill-opacity="1"><g transform="translate(78.876313, 265.333493)"><g><path d="M 34.597656 -21.289062 C 34.597656 -18.363281 32.199219 -15.96875 29.273438 -15.96875 L 7.984375 -15.96875 L 7.984375 -31.933594 L 29.273438 -31.933594 C 32.199219 -31.933594 34.597656 -29.539062 34.597656 -26.613281 Z M 39.917969 0 L 39.917969 -3.777344 L 32.519531 -11.175781 C 36.9375 -12.667969 39.917969 -16.765625 39.917969 -21.289062 L 39.917969 -26.613281 C 39.917969 -32.519531 34.863281 -37.257812 29.273438 -37.257812 L 2.660156 -37.257812 L 2.660156 0 L 7.984375 0 L 7.984375 -10.644531 L 25.496094 -10.644531 L 36.140625 0 Z M 39.917969 0 "/></g></g></g><g fill="#ffffff" fill-opacity="1"><g transform="translate(131.991435, 265.333493)"><g><path d="M 2.660156 0 L 7.984375 0 L 7.984375 -37.257812 L 2.660156 -37.257812 Z M 2.660156 0 "/></g></g></g><g fill="#ffffff" fill-opacity="1"><g transform="translate(153.708284, 265.333493)"><g><path d="M 39.917969 -37.257812 L 34.597656 -37.257812 L 34.597656 -9.046875 L 7.984375 -37.257812 L 2.660156 -37.257812 L 2.660156 0 L 7.984375 0 L 7.984375 -28.636719 L 34.597656 0 L 39.917969 0 Z M 39.917969 -37.257812 "/></g></g></g><g fill="#ffffff" fill-opacity="1"><g transform="translate(207.355601, 265.333493)"><g><path d="M 37.257812 -31.933594 L 37.257812 -37.257812 L 0 -37.257812 L 0 -31.933594 L 15.96875 -31.933594 L 15.96875 0 L 21.289062 0 L 21.289062 -31.933594 Z M 37.257812 -31.933594 "/></g></g></g><g fill="#ffffff" fill-opacity="1"><g transform="translate(255.681162, 265.333493)"><g><path d="M 7.984375 -31.933594 L 39.917969 -31.933594 L 39.917969 -37.257812 L 2.660156 -37.257812 L 2.660156 0 L 39.917969 0 L 39.917969 -5.324219 L 7.984375 -5.324219 L 7.984375 -15.96875 L 34.597656 -15.96875 L 34.597656 -21.289062 L 7.984375 -21.289062 Z M 7.984375 -31.933594 "/></g></g></g><g fill="#ffffff" fill-opacity="1"><g transform="translate(308.26412, 265.333493)"><g><path d="M 1.597656 -37.257812 L 1.597656 -31.933594 L 31.136719 -31.933594 L 1.597656 -5.324219 L 1.597656 0 L 38.855469 0 L 38.855469 -5.324219 L 9.527344 -5.324219 L 38.855469 -31.933594 L 38.855469 -37.257812 Z M 1.597656 -37.257812 "/></g></g></g><g fill="#ffffff" fill-opacity="1"><g transform="translate(45.902854, 301.446717)"><g><path d="M 9.21875 0.390625 C 7.96875 -3.546875 6.675781 -7.414062 5.34375 -11.21875 L 5.140625 -11.21875 C 5.140625 -11.039062 5.101562 -10.4375 5.03125 -9.40625 C 4.96875 -8.382812 4.910156 -7.535156 4.859375 -6.859375 C 4.660156 -4.078125 4.5625 -2.578125 4.5625 -2.359375 C 4.5625 -1.828125 4.828125 -1.5625 5.359375 -1.5625 L 6.203125 -1.59375 L 6.359375 -1.46875 L 6.078125 0.09375 C 4.691406 0.03125 3.722656 0 3.171875 0 C 2.796875 0 2.335938 0.0234375 1.796875 0.078125 C 1.265625 0.128906 0.90625 0.171875 0.71875 0.203125 L 0.875 -1.421875 C 1.351562 -1.460938 1.695312 -1.613281 1.90625 -1.875 C 2.125 -2.132812 2.285156 -2.578125 2.390625 -3.203125 C 2.535156 -4.492188 2.734375 -6.421875 2.984375 -8.984375 C 3.242188 -11.554688 3.375 -12.960938 3.375 -13.203125 C 3.375 -13.648438 3.242188 -13.957031 2.984375 -14.125 C 2.734375 -14.289062 2.234375 -14.40625 1.484375 -14.46875 L 1.359375 -14.625 L 1.59375 -16.0625 C 2.945312 -15.976562 3.976562 -15.9375 4.6875 -15.9375 C 5.050781 -15.9375 5.929688 -15.96875 7.328125 -16.03125 C 7.984375 -13.695312 8.898438 -10.660156 10.078125 -6.921875 L 10.5 -5.640625 L 10.703125 -5.640625 C 10.796875 -5.960938 10.925781 -6.375 11.09375 -6.875 C 11.257812 -7.382812 11.4375 -7.929688 11.625 -8.515625 C 12.46875 -11.035156 13.269531 -13.519531 14.03125 -15.96875 C 14.375 -15.96875 14.65625 -15.957031 14.875 -15.9375 L 16.1875 -15.921875 L 16.953125 -15.9375 C 17.304688 -15.9375 17.753906 -15.953125 18.296875 -15.984375 C 18.847656 -16.015625 19.242188 -16.050781 19.484375 -16.09375 L 19.59375 -15.984375 L 19.4375 -14.5 C 18.726562 -14.4375 18.242188 -14.3125 17.984375 -14.125 C 17.734375 -13.945312 17.609375 -13.632812 17.609375 -13.1875 C 17.609375 -12.675781 17.671875 -11.367188 17.796875 -9.265625 C 17.929688 -7.171875 18.066406 -5.363281 18.203125 -3.84375 C 18.296875 -2.9375 18.421875 -2.328125 18.578125 -2.015625 C 18.734375 -1.710938 19.015625 -1.5625 19.421875 -1.5625 C 19.597656 -1.5625 19.75 -1.566406 19.875 -1.578125 C 20 -1.597656 20.078125 -1.609375 20.109375 -1.609375 L 20.203125 -1.484375 L 19.984375 0.078125 C 19.734375 0.078125 19.507812 0.0664062 19.3125 0.046875 C 18.582031 0.015625 17.972656 0 17.484375 0 C 17.003906 0 16.367188 0.0234375 15.578125 0.078125 C 14.796875 0.128906 14.253906 0.171875 13.953125 0.203125 L 14.125 -1.421875 C 14.625 -1.484375 14.976562 -1.609375 15.1875 -1.796875 C 15.40625 -1.984375 15.515625 -2.269531 15.515625 -2.65625 C 15.515625 -2.71875 15.445312 -3.742188 15.3125 -5.734375 C 15.132812 -8.335938 15.03125 -10.164062 15 -11.21875 L 14.765625 -11.21875 C 13.378906 -7.34375 12.09375 -3.546875 10.90625 0.171875 Z M 9.21875 0.390625 "/></g></g></g><g fill="#ffffff" fill-opacity="1"><g transform="translate(78.188988, 301.446717)"><g><path d="M 8.21875 0 L 8.34375 -1.46875 C 8.90625 -1.519531 9.3125 -1.570312 9.5625 -1.625 C 9.820312 -1.6875 10 -1.769531 10.09375 -1.875 C 10.195312 -1.976562 10.25 -2.140625 10.25 -2.359375 C 10.25 -2.554688 10.207031 -2.847656 10.125 -3.234375 L 9.609375 -5.140625 C 8.742188 -5.171875 7.984375 -5.1875 7.328125 -5.1875 C 7.023438 -5.1875 6.40625 -5.144531 5.46875 -5.0625 L 4.9375 -5.015625 L 4.3125 -3.109375 C 4.21875 -2.742188 4.171875 -2.484375 4.171875 -2.328125 C 4.171875 -2.035156 4.253906 -1.832031 4.421875 -1.71875 C 4.597656 -1.601562 4.90625 -1.546875 5.34375 -1.546875 L 6.40625 -1.546875 L 6.53125 -1.359375 L 6.359375 0.15625 C 6.128906 0.132812 5.628906 0.101562 4.859375 0.0625 C 4.097656 0.0195312 3.390625 0 2.734375 0 C 2.035156 0 1.410156 0.00390625 0.859375 0.015625 C 0.304688 0.0351562 -0.0625 0.0546875 -0.25 0.078125 L -0.078125 -1.546875 C 0.304688 -1.609375 0.617188 -1.765625 0.859375 -2.015625 C 1.109375 -2.265625 1.34375 -2.671875 1.5625 -3.234375 L 6.015625 -15.8125 L 9.8125 -16.21875 L 10.078125 -16.09375 C 10.328125 -15.144531 10.84375 -13.207031 11.625 -10.28125 C 12.414062 -7.363281 13.09375 -5.019531 13.65625 -3.25 C 13.832031 -2.65625 14.0625 -2.234375 14.34375 -1.984375 C 14.625 -1.734375 15.046875 -1.585938 15.609375 -1.546875 L 15.71875 -1.359375 L 15.546875 0.078125 C 15.328125 0.0546875 14.921875 0.0351562 14.328125 0.015625 C 13.734375 0.00390625 13.128906 0 12.515625 0 C 11.640625 0 10.78125 0.0234375 9.9375 0.078125 C 9.101562 0.140625 8.570312 0.179688 8.34375 0.203125 Z M 7.328125 -7.09375 C 7.503906 -7.09375 8.113281 -7.117188 9.15625 -7.171875 L 7.703125 -12.71875 L 7.375 -12.71875 L 5.53125 -7.09375 Z M 7.328125 -7.09375 "/></g></g></g><g fill="#ffffff" fill-opacity="1"><g transform="translate(105.111712, 301.446717)"><g><path d="M 2.9375 -13.0625 C 2.9375 -13.570312 2.875 -13.910156 2.75 -14.078125 C 2.632812 -14.253906 2.394531 -14.34375 2.03125 -14.34375 L 1.296875 -14.328125 L 1.171875 -14.53125 L 1.34375 -15.984375 L 4.671875 -15.9375 C 5.117188 -15.9375 5.726562 -15.960938 6.5 -16.015625 C 7.28125 -16.066406 7.796875 -16.097656 8.046875 -16.109375 L 7.921875 -14.46875 C 7.304688 -14.351562 6.890625 -14.203125 6.671875 -14.015625 C 6.460938 -13.828125 6.347656 -13.5 6.328125 -13.03125 L 6.078125 -3.28125 C 6.066406 -2.601562 6.128906 -2.144531 6.265625 -1.90625 C 6.410156 -1.675781 6.671875 -1.5625 7.046875 -1.5625 C 7.296875 -1.5625 7.503906 -1.566406 7.671875 -1.578125 C 7.847656 -1.597656 7.960938 -1.617188 8.015625 -1.640625 L 8.140625 -1.484375 L 7.921875 0.078125 C 7.648438 0.078125 7.15625 0.0625 6.4375 0.03125 C 5.71875 0.0078125 5.03125 0 4.375 0 C 3.625 0 2.921875 0.00390625 2.265625 0.015625 C 1.617188 0.0351562 1.175781 0.0546875 0.9375 0.078125 L 1.171875 -1.484375 C 1.660156 -1.554688 2.03125 -1.65625 2.28125 -1.78125 C 2.53125 -1.90625 2.703125 -2.09375 2.796875 -2.34375 C 2.890625 -2.601562 2.9375 -2.972656 2.9375 -3.453125 Z M 10.359375 -12.390625 C 10.804688 -12.867188 11.03125 -13.28125 11.03125 -13.625 C 11.03125 -13.863281 10.921875 -14.039062 10.703125 -14.15625 C 10.484375 -14.28125 10.144531 -14.351562 9.6875 -14.375 L 9.609375 -14.546875 L 9.8125 -16.0625 C 10.039062 -16.039062 10.5 -16.015625 11.1875 -15.984375 C 11.882812 -15.953125 12.453125 -15.9375 12.890625 -15.9375 C 13.453125 -15.9375 14.015625 -15.945312 14.578125 -15.96875 C 15.148438 -16 15.546875 -16.019531 15.765625 -16.03125 L 15.921875 -15.765625 L 15.71875 -14.375 C 15.21875 -14.175781 14.738281 -13.878906 14.28125 -13.484375 C 13.832031 -13.085938 13.242188 -12.457031 12.515625 -11.59375 L 9.828125 -8.609375 L 13.1875 -3.59375 C 13.695312 -2.832031 14.160156 -2.285156 14.578125 -1.953125 C 15.003906 -1.628906 15.488281 -1.457031 16.03125 -1.4375 L 16.1875 -1.21875 L 15.984375 0.078125 C 15.734375 0.109375 15.238281 0.164062 14.5 0.25 C 13.769531 0.332031 13.316406 0.375 13.140625 0.375 C 12.640625 0.375 12.164062 0.207031 11.71875 -0.125 C 11.269531 -0.46875 10.820312 -1 10.375 -1.71875 L 6.578125 -7.84375 L 6.65625 -8.359375 Z M 10.359375 -12.390625 "/></g></g></g><g fill="#ffffff" fill-opacity="1"><g transform="translate(132.829014, 301.446717)"><g><path d="M 13.828125 -4.6875 C 13.566406 -3.394531 13.34375 -1.863281 13.15625 -0.09375 L 12.90625 0.171875 C 9.75 0.0546875 7.175781 0 5.1875 0 C 3.800781 0 2.382812 0.0820312 0.9375 0.25 L 1.125 -1.421875 C 1.8125 -1.515625 2.28125 -1.707031 2.53125 -2 C 2.78125 -2.300781 2.90625 -2.816406 2.90625 -3.546875 L 2.9375 -13.015625 C 2.9375 -13.554688 2.882812 -13.910156 2.78125 -14.078125 C 2.675781 -14.253906 2.460938 -14.34375 2.140625 -14.34375 C 1.921875 -14.34375 1.660156 -14.328125 1.359375 -14.296875 L 1.21875 -14.53125 L 1.421875 -16.015625 L 1.90625 -16.015625 C 3.082031 -15.960938 4.414062 -15.9375 5.90625 -15.9375 C 9.601562 -15.9375 12.117188 -16.035156 13.453125 -16.234375 L 13.65625 -15.96875 C 13.519531 -15.351562 13.398438 -14.625 13.296875 -13.78125 C 13.191406 -12.9375 13.117188 -12.164062 13.078125 -11.46875 L 10.875 -11.328125 L 10.921875 -12.3125 C 10.921875 -12.8125 10.847656 -13.164062 10.703125 -13.375 C 10.566406 -13.582031 10.285156 -13.722656 9.859375 -13.796875 C 9.441406 -13.867188 8.738281 -13.90625 7.75 -13.90625 C 7.3125 -13.90625 7.007812 -13.882812 6.84375 -13.84375 C 6.6875 -13.8125 6.578125 -13.738281 6.515625 -13.625 C 6.460938 -13.507812 6.425781 -13.320312 6.40625 -13.0625 L 6.234375 -9.15625 L 8.5625 -9.140625 C 8.914062 -9.140625 9.351562 -9.160156 9.875 -9.203125 C 10.394531 -9.242188 10.921875 -9.296875 11.453125 -9.359375 L 11.640625 -9.140625 L 11.296875 -7.03125 C 11.078125 -7.03125 10.910156 -7.035156 10.796875 -7.046875 C 9.640625 -7.078125 8.722656 -7.09375 8.046875 -7.09375 C 7.535156 -7.09375 6.894531 -7.046875 6.125 -6.953125 L 6.078125 -3.40625 C 6.078125 -2.9375 6.113281 -2.601562 6.1875 -2.40625 C 6.269531 -2.207031 6.410156 -2.070312 6.609375 -2 C 6.816406 -1.9375 7.179688 -1.90625 7.703125 -1.90625 C 8.785156 -1.90625 9.570312 -1.96875 10.0625 -2.09375 C 10.550781 -2.21875 10.90625 -2.46875 11.125 -2.84375 C 11.34375 -3.226562 11.507812 -3.859375 11.625 -4.734375 L 13.65625 -4.921875 Z M 13.828125 -4.6875 "/></g></g></g><g fill="#ffffff" fill-opacity="1"><g transform="translate(159.031652, 301.446717)"><g/></g></g><g fill="#ffffff" fill-opacity="1"><g transform="translate(174.755786, 301.446717)"><g><path d="M 1.09375 -1.359375 C 1.820312 -1.515625 2.3125 -1.726562 2.5625 -2 C 2.8125 -2.269531 2.9375 -2.753906 2.9375 -3.453125 L 2.9375 -13.0625 C 2.9375 -13.570312 2.875 -13.910156 2.75 -14.078125 C 2.632812 -14.253906 2.394531 -14.34375 2.03125 -14.34375 L 1.171875 -14.328125 L 1.046875 -14.53125 L 1.234375 -15.96875 L 4.671875 -15.9375 C 5.210938 -15.9375 6.367188 -15.992188 8.140625 -16.109375 L 8.015625 -14.46875 C 7.390625 -14.382812 6.972656 -14.253906 6.765625 -14.078125 C 6.554688 -13.910156 6.4375 -13.597656 6.40625 -13.140625 C 6.1875 -9.234375 6.078125 -5.945312 6.078125 -3.28125 C 6.078125 -2.601562 6.144531 -2.144531 6.28125 -1.90625 C 6.414062 -1.675781 6.671875 -1.5625 7.046875 -1.5625 C 7.234375 -1.5625 7.597656 -1.585938 8.140625 -1.640625 L 8.25 -1.484375 L 8.015625 0.078125 L 7.125 0.046875 L 4.375 0 C 3.613281 0 2.46875 0.0703125 0.9375 0.21875 Z M 1.09375 -1.359375 "/></g></g></g><g fill="#ffffff" fill-opacity="1"><g transform="translate(195.222573, 301.446717)"><g><path d="M 2.90625 -1.46875 C 3.664062 -1.53125 4.210938 -1.628906 4.546875 -1.765625 C 4.878906 -1.898438 5.101562 -2.128906 5.21875 -2.453125 C 5.332031 -2.785156 5.390625 -3.332031 5.390625 -4.09375 L 5.390625 -14.046875 C 4.429688 -14.015625 3.753906 -13.929688 3.359375 -13.796875 C 2.972656 -13.671875 2.703125 -13.40625 2.546875 -13 C 2.398438 -12.59375 2.269531 -11.859375 2.15625 -10.796875 L 0.125 -10.65625 C 0.238281 -12.03125 0.335938 -13.789062 0.421875 -15.9375 L 0.6875 -16.21875 L 3.15625 -15.9375 L 10.90625 -15.9375 L 13.40625 -16.21875 L 13.6875 -15.9375 C 13.71875 -13.945312 13.796875 -12.234375 13.921875 -10.796875 L 11.890625 -10.65625 C 11.753906 -11.78125 11.613281 -12.546875 11.46875 -12.953125 C 11.332031 -13.367188 11.085938 -13.644531 10.734375 -13.78125 C 10.378906 -13.925781 9.75 -14.015625 8.84375 -14.046875 C 8.757812 -12.828125 8.6875 -11.164062 8.625 -9.0625 C 8.570312 -6.957031 8.546875 -5.046875 8.546875 -3.328125 C 8.546875 -2.710938 8.648438 -2.269531 8.859375 -2 C 9.078125 -1.738281 9.425781 -1.609375 9.90625 -1.609375 C 10.320312 -1.609375 10.757812 -1.632812 11.21875 -1.6875 L 11.328125 -1.5625 L 11.09375 0.09375 C 9.34375 0.03125 7.921875 0 6.828125 0 C 5.960938 0 4.585938 0.0507812 2.703125 0.15625 Z M 2.90625 -1.46875 "/></g></g></g><g fill="#ffffff" fill-opacity="1"><g transform="translate(220.705115, 301.446717)"><g/></g></g><g fill="#ffffff" fill-opacity="1"><g transform="translate(236.429239, 301.446717)"><g><path d="M 13.828125 -4.6875 C 13.566406 -3.394531 13.34375 -1.863281 13.15625 -0.09375 L 12.90625 0.171875 C 9.75 0.0546875 7.175781 0 5.1875 0 C 3.800781 0 2.382812 0.0820312 0.9375 0.25 L 1.125 -1.421875 C 1.8125 -1.515625 2.28125 -1.707031 2.53125 -2 C 2.78125 -2.300781 2.90625 -2.816406 2.90625 -3.546875 L 2.9375 -13.015625 C 2.9375 -13.554688 2.882812 -13.910156 2.78125 -14.078125 C 2.675781 -14.253906 2.460938 -14.34375 2.140625 -14.34375 C 1.921875 -14.34375 1.660156 -14.328125 1.359375 -14.296875 L 1.21875 -14.53125 L 1.421875 -16.015625 L 1.90625 -16.015625 C 3.082031 -15.960938 4.414062 -15.9375 5.90625 -15.9375 C 9.601562 -15.9375 12.117188 -16.035156 13.453125 -16.234375 L 13.65625 -15.96875 C 13.519531 -15.351562 13.398438 -14.625 13.296875 -13.78125 C 13.191406 -12.9375 13.117188 -12.164062 13.078125 -11.46875 L 10.875 -11.328125 L 10.921875 -12.3125 C 10.921875 -12.8125 10.847656 -13.164062 10.703125 -13.375 C 10.566406 -13.582031 10.285156 -13.722656 9.859375 -13.796875 C 9.441406 -13.867188 8.738281 -13.90625 7.75 -13.90625 C 7.3125 -13.90625 7.007812 -13.882812 6.84375 -13.84375 C 6.6875 -13.8125 6.578125 -13.738281 6.515625 -13.625 C 6.460938 -13.507812 6.425781 -13.320312 6.40625 -13.0625 L 6.234375 -9.15625 L 8.5625 -9.140625 C 8.914062 -9.140625 9.351562 -9.160156 9.875 -9.203125 C 10.394531 -9.242188 10.921875 -9.296875 11.453125 -9.359375 L 11.640625 -9.140625 L 11.296875 -7.03125 C 11.078125 -7.03125 10.910156 -7.035156 10.796875 -7.046875 C 9.640625 -7.078125 8.722656 -7.09375 8.046875 -7.09375 C 7.535156 -7.09375 6.894531 -7.046875 6.125 -6.953125 L 6.078125 -3.40625 C 6.078125 -2.9375 6.113281 -2.601562 6.1875 -2.40625 C 6.269531 -2.207031 6.410156 -2.070312 6.609375 -2 C 6.816406 -1.9375 7.179688 -1.90625 7.703125 -1.90625 C 8.785156 -1.90625 9.570312 -1.96875 10.0625 -2.09375 C 10.550781 -2.21875 10.90625 -2.46875 11.125 -2.84375 C 11.34375 -3.226562 11.507812 -3.859375 11.625 -4.734375 L 13.65625 -4.921875 Z M 13.828125 -4.6875 "/></g></g></g><g fill="#ffffff" fill-opacity="1"><g transform="translate(262.631887, 301.446717)"><g><path d="M 8.21875 0 L 8.34375 -1.46875 C 8.90625 -1.519531 9.3125 -1.570312 9.5625 -1.625 C 9.820312 -1.6875 10 -1.769531 10.09375 -1.875 C 10.195312 -1.976562 10.25 -2.140625 10.25 -2.359375 C 10.25 -2.554688 10.207031 -2.847656 10.125 -3.234375 L 9.609375 -5.140625 C 8.742188 -5.171875 7.984375 -5.1875 7.328125 -5.1875 C 7.023438 -5.1875 6.40625 -5.144531 5.46875 -5.0625 L 4.9375 -5.015625 L 4.3125 -3.109375 C 4.21875 -2.742188 4.171875 -2.484375 4.171875 -2.328125 C 4.171875 -2.035156 4.253906 -1.832031 4.421875 -1.71875 C 4.597656 -1.601562 4.90625 -1.546875 5.34375 -1.546875 L 6.40625 -1.546875 L 6.53125 -1.359375 L 6.359375 0.15625 C 6.128906 0.132812 5.628906 0.101562 4.859375 0.0625 C 4.097656 0.0195312 3.390625 0 2.734375 0 C 2.035156 0 1.410156 0.00390625 0.859375 0.015625 C 0.304688 0.0351562 -0.0625 0.0546875 -0.25 0.078125 L -0.078125 -1.546875 C 0.304688 -1.609375 0.617188 -1.765625 0.859375 -2.015625 C 1.109375 -2.265625 1.34375 -2.671875 1.5625 -3.234375 L 6.015625 -15.8125 L 9.8125 -16.21875 L 10.078125 -16.09375 C 10.328125 -15.144531 10.84375 -13.207031 11.625 -10.28125 C 12.414062 -7.363281 13.09375 -5.019531 13.65625 -3.25 C 13.832031 -2.65625 14.0625 -2.234375 14.34375 -1.984375 C 14.625 -1.734375 15.046875 -1.585938 15.609375 -1.546875 L 15.71875 -1.359375 L 15.546875 0.078125 C 15.328125 0.0546875 14.921875 0.0351562 14.328125 0.015625 C 13.734375 0.00390625 13.128906 0 12.515625 0 C 11.640625 0 10.78125 0.0234375 9.9375 0.078125 C 9.101562 0.140625 8.570312 0.179688 8.34375 0.203125 Z M 7.328125 -7.09375 C 7.503906 -7.09375 8.113281 -7.117188 9.15625 -7.171875 L 7.703125 -12.71875 L 7.375 -12.71875 L 5.53125 -7.09375 Z M 7.328125 -7.09375 "/></g></g></g><g fill="#ffffff" fill-opacity="1"><g transform="translate(289.554622, 301.446717)"><g><path d="M 5.46875 0.296875 C 4.695312 0.296875 3.988281 0.222656 3.34375 0.078125 C 2.707031 -0.0546875 2.175781 -0.207031 1.75 -0.375 C 1.332031 -0.539062 1.125 -0.628906 1.125 -0.640625 L 0.921875 -1 C 0.929688 -1.113281 0.96875 -1.363281 1.03125 -1.75 C 1.09375 -2.132812 1.15625 -2.65625 1.21875 -3.3125 C 1.28125 -3.96875 1.3125 -4.601562 1.3125 -5.21875 L 3.359375 -5.359375 C 3.359375 -4.429688 3.4375 -3.71875 3.59375 -3.21875 C 3.757812 -2.726562 4.035156 -2.378906 4.421875 -2.171875 C 4.816406 -1.960938 5.378906 -1.859375 6.109375 -1.859375 C 6.898438 -1.859375 7.535156 -2.03125 8.015625 -2.375 C 8.492188 -2.726562 8.734375 -3.210938 8.734375 -3.828125 C 8.734375 -4.367188 8.476562 -4.828125 7.96875 -5.203125 C 7.46875 -5.585938 6.691406 -6.035156 5.640625 -6.546875 C 5.566406 -6.585938 5.375 -6.679688 5.0625 -6.828125 C 3.820312 -7.421875 2.851562 -8.046875 2.15625 -8.703125 C 1.46875 -9.367188 1.125 -10.234375 1.125 -11.296875 C 1.125 -12.242188 1.40625 -13.09375 1.96875 -13.84375 C 2.53125 -14.59375 3.3125 -15.175781 4.3125 -15.59375 C 5.3125 -16.019531 6.445312 -16.234375 7.71875 -16.234375 C 8.445312 -16.234375 9.117188 -16.179688 9.734375 -16.078125 C 10.359375 -15.984375 10.859375 -15.878906 11.234375 -15.765625 C 11.609375 -15.660156 11.84375 -15.59375 11.9375 -15.5625 L 12.109375 -15.25 C 12.097656 -15.144531 12.050781 -14.890625 11.96875 -14.484375 C 11.882812 -14.078125 11.800781 -13.554688 11.71875 -12.921875 C 11.632812 -12.296875 11.566406 -11.65625 11.515625 -11 L 9.6875 -10.84375 L 9.453125 -11 C 9.453125 -11.050781 9.460938 -11.15625 9.484375 -11.3125 C 9.503906 -11.46875 9.515625 -11.660156 9.515625 -11.890625 C 9.515625 -12.640625 9.328125 -13.171875 8.953125 -13.484375 C 8.578125 -13.796875 7.953125 -13.953125 7.078125 -13.953125 C 6.367188 -13.953125 5.785156 -13.78125 5.328125 -13.4375 C 4.867188 -13.101562 4.640625 -12.671875 4.640625 -12.140625 C 4.640625 -11.742188 4.785156 -11.382812 5.078125 -11.0625 C 5.367188 -10.738281 5.71875 -10.457031 6.125 -10.21875 C 6.53125 -9.988281 7.117188 -9.6875 7.890625 -9.3125 C 8.816406 -8.863281 9.582031 -8.457031 10.1875 -8.09375 C 10.789062 -7.726562 11.300781 -7.265625 11.71875 -6.703125 C 12.132812 -6.140625 12.34375 -5.46875 12.34375 -4.6875 C 12.34375 -3.695312 12.054688 -2.820312 11.484375 -2.0625 C 10.910156 -1.3125 10.101562 -0.726562 9.0625 -0.3125 C 8.03125 0.09375 6.832031 0.296875 5.46875 0.296875 Z M 5.46875 0.296875 "/></g></g></g><g fill="#ffffff" fill-opacity="1"><g transform="translate(314.341936, 301.446717)"><g><path d="M 3.546875 -1.390625 C 4.210938 -1.472656 4.695312 -1.59375 5 -1.75 C 5.3125 -1.90625 5.519531 -2.128906 5.625 -2.421875 C 5.726562 -2.710938 5.78125 -3.15625 5.78125 -3.75 L 5.78125 -4.515625 C 5.78125 -4.960938 5.726562 -5.367188 5.625 -5.734375 C 5.53125 -6.097656 5.34375 -6.546875 5.0625 -7.078125 L 2.625 -11.796875 C 2.21875 -12.640625 1.832031 -13.234375 1.46875 -13.578125 C 1.101562 -13.929688 0.546875 -14.171875 -0.203125 -14.296875 L -0.25 -14.421875 L -0.078125 -15.984375 C 0.148438 -15.984375 0.582031 -15.972656 1.21875 -15.953125 C 1.863281 -15.929688 2.492188 -15.921875 3.109375 -15.921875 C 3.628906 -15.921875 4.34375 -15.945312 5.25 -16 C 6.164062 -16.0625 6.773438 -16.097656 7.078125 -16.109375 L 7.171875 -15.890625 L 7.046875 -14.5 C 6.484375 -14.46875 6.085938 -14.394531 5.859375 -14.28125 C 5.640625 -14.164062 5.53125 -13.984375 5.53125 -13.734375 C 5.53125 -13.421875 6.09375 -12.054688 7.21875 -9.640625 C 7.550781 -8.867188 7.710938 -8.503906 7.703125 -8.546875 L 7.921875 -8.546875 L 9.9375 -12.71875 C 10.175781 -13.207031 10.296875 -13.59375 10.296875 -13.875 C 10.296875 -14.0625 10.191406 -14.195312 9.984375 -14.28125 C 9.785156 -14.375 9.460938 -14.4375 9.015625 -14.46875 L 8.96875 -14.59375 L 9.140625 -16.015625 L 10.328125 -15.96875 C 11.222656 -15.9375 11.921875 -15.921875 12.421875 -15.921875 C 12.878906 -15.921875 13.375 -15.929688 13.90625 -15.953125 C 14.4375 -15.972656 14.773438 -15.992188 14.921875 -16.015625 L 15.015625 -15.84375 L 14.84375 -14.34375 C 14.1875 -14.132812 13.660156 -13.8125 13.265625 -13.375 C 12.878906 -12.945312 12.394531 -12.210938 11.8125 -11.171875 L 9.453125 -6.734375 C 9.222656 -6.316406 9.085938 -5.890625 9.046875 -5.453125 C 9.003906 -5.023438 8.984375 -4.242188 8.984375 -3.109375 C 8.984375 -2.554688 9.066406 -2.164062 9.234375 -1.9375 C 9.398438 -1.71875 9.695312 -1.609375 10.125 -1.609375 C 10.425781 -1.609375 10.6875 -1.613281 10.90625 -1.625 C 11.132812 -1.644531 11.289062 -1.664062 11.375 -1.6875 L 11.46875 -1.5625 L 11.25 0.09375 C 10.945312 0.0820312 10.390625 0.0625 9.578125 0.03125 C 8.765625 0.0078125 7.972656 0 7.203125 0 C 6.609375 0 5.890625 0.0351562 5.046875 0.109375 C 4.203125 0.179688 3.644531 0.234375 3.375 0.265625 Z M 3.546875 -1.390625 "/></g></g></g></svg>