<svg version="1.1" id="Layer_1" xmlns="http://www.w3.org/2000/svg" xmlns:xlink="http://www.w3.org/1999/xlink" x="0px" y="0px"
	 width="100%" viewBox="0 0 1024 1024" enable-background="new 0 0 1024 1024" xml:space="preserve">
<path fill="#000000" opacity="1.000000" stroke="none" 
	d="
M811.091919,466.864258 
	C807.454102,483.185120 803.960938,499.108551 800.380066,515.012207 
	C797.885193,526.092773 795.157959,528.251831 784.060242,528.251953 
	C604.254883,528.253357 424.449493,528.254822 244.644135,528.251526 
	C231.674423,528.251282 229.319244,526.362366 226.410461,513.500305 
	C220.944092,489.329010 215.009293,465.247528 210.278824,440.932281 
	C207.683945,427.594269 207.163269,413.853943 205.682404,400.297699 
	C203.117981,376.822144 200.507919,353.351562 197.966019,329.873566 
	C195.495438,307.054169 193.091888,284.227539 190.648193,261.405182 
	C189.231155,248.171097 187.841049,234.933823 186.346344,221.708435 
	C185.444580,213.729218 189.495773,208.921463 197.646057,208.822266 
	C206.643387,208.712738 215.643219,208.748642 224.641357,208.809601 
	C227.090591,208.826187 229.112793,208.305511 230.940460,206.485153 
	C247.060532,190.429504 267.367432,183.782059 289.247284,180.721695 
	C297.527222,179.563553 305.857269,179.694092 314.186096,179.694855 
	C449.165131,179.707230 584.144165,179.703827 719.123169,179.716965 
	C739.049438,179.718903 758.194763,183.267838 776.090149,192.425415 
	C782.968750,195.945374 789.220337,200.364532 794.651428,205.825943 
	C796.851013,208.037933 799.139832,208.897049 802.173218,208.852814 
	C810.836731,208.726456 819.503540,208.755493 828.168457,208.813461 
	C837.365967,208.875000 840.994873,212.622452 840.157349,221.864090 
	C838.926392,235.446716 837.316895,248.995026 835.869446,262.558044 
	C834.016541,279.920044 832.166382,297.282288 830.311584,314.644073 
	C828.103760,335.311432 825.875366,355.976593 823.687378,376.646057 
	C821.551697,396.822357 819.775024,417.043640 817.205505,437.164032 
	C815.946350,447.023682 813.246765,456.699402 811.091919,466.864258 
M807.549438,368.140991 
	C808.068298,362.844604 808.539062,357.542999 809.114441,352.252747 
	C811.289246,332.259766 813.514526,312.272339 815.689514,292.279388 
	C817.864990,272.281525 819.911865,252.269104 822.207153,232.285126 
	C823.000488,225.377243 823.006714,225.074280 816.230225,225.074524 
	C614.263245,225.081635 412.296234,225.091354 210.329254,225.128571 
	C208.224045,225.128967 205.994019,224.622803 203.800644,226.096527 
	C204.057800,229.804337 204.187347,233.613602 204.606552,237.390717 
	C206.788773,257.052582 209.107727,276.699371 211.257401,296.364716 
	C213.424744,316.191772 215.383850,336.041656 217.554031,355.868378 
	C220.049728,378.669006 222.765030,401.445862 225.200714,424.252686 
	C226.092667,432.604645 225.851990,432.640472 234.132996,432.640564 
	C420.435883,432.642792 606.738770,432.642639 793.041626,432.641998 
	C794.374695,432.641998 795.708008,432.609650 797.040771,432.626526 
	C799.183167,432.653625 800.452332,431.847443 800.686157,429.501984 
	C801.279907,423.547577 802.024414,417.608368 802.686462,411.660583 
	C804.267944,397.453369 805.836670,383.244751 807.549438,368.140991 
M667.500000,449.263092 
	C551.391663,449.262665 435.283356,449.262207 319.175018,449.261963 
	C314.843872,449.261932 310.510132,449.355804 306.182465,449.233826 
	C303.270203,449.151764 301.778168,450.018188 301.042389,453.193359 
	C297.109222,470.166565 296.894379,487.152435 300.328857,504.185333 
	C301.838928,511.674286 301.981903,511.652130 309.691833,511.652222 
	C438.793823,511.653442 567.895813,511.652924 696.997803,511.652557 
	C704.327454,511.652527 711.659973,511.529694 718.985535,511.702209 
	C722.457153,511.783936 724.001160,510.432556 724.772095,507.044861 
	C728.750793,489.562164 728.787231,472.136292 725.085083,454.590027 
	C724.221069,450.495087 722.601990,449.139099 718.473999,449.187531 
	C701.817993,449.383179 685.158325,449.265625 667.500000,449.263092 
M499.500000,208.827698 
	C589.053101,208.827698 678.606140,208.827698 768.159241,208.827698 
	C767.533875,207.408310 766.757446,206.843979 765.915649,206.404968 
	C752.007568,199.151917 736.999817,196.425751 721.534607,196.416367 
	C582.230713,196.331833 442.926788,196.354126 303.622864,196.396149 
	C292.558716,196.399490 281.740051,198.395233 271.246155,201.828690 
	C266.564148,203.360565 261.625275,204.647522 257.157074,208.826996 
	C338.219727,208.826996 418.359863,208.826996 499.500000,208.827698 
M744.152527,485.372437 
	C743.836365,493.988312 742.145142,502.451691 740.889954,510.743958 
	C742.647339,511.982635 744.197754,511.619293 745.656677,511.624756 
	C756.488525,511.665375 767.324707,511.481445 778.150269,511.747803 
	C782.123779,511.845581 783.807434,510.344299 784.565063,506.645599 
	C786.866577,495.408936 789.369995,484.213684 791.783691,472.999939 
	C793.416382,465.414490 795.030273,457.825012 796.758728,449.740662 
	C777.722473,449.740662 759.416077,449.740662 740.721313,449.740662 
	C742.963135,461.543274 744.687012,472.873505 744.152527,485.372437 
M283.492706,459.178680 
	C283.622314,458.021332 283.686981,456.852295 283.892303,455.708527 
	C285.044037,449.292755 285.055603,449.268036 278.654510,449.262451 
	C263.675262,449.249329 248.695816,449.309021 233.716949,449.234894 
	C230.261856,449.217804 228.943008,450.064026 229.855957,453.923920 
	C234.022171,471.538239 238.033951,489.191559 241.826202,506.889771 
	C242.611618,510.555206 244.086151,511.795685 247.781372,511.724121 
	C258.429260,511.517761 269.086823,511.504303 279.734222,511.723450 
	C284.177948,511.814880 285.053009,510.417114 284.179962,506.119659 
	C281.076508,490.843750 280.622040,475.446716 283.492706,459.178680 
z"/>
<path fill="#000000" opacity="1.000000" stroke="none" 
	d="
M771.000122,623.572632 
	C782.156982,623.476868 792.815735,623.467651 803.469604,623.237671 
	C807.160400,623.157959 808.902222,624.216003 808.983093,628.272095 
	C809.199280,639.110107 809.348022,639.102722 798.734680,639.102661 
	C774.915771,639.102539 751.096252,639.195190 727.278503,639.031250 
	C722.838562,639.000732 720.913147,640.130005 721.259338,644.916443 
	C721.654907,650.384460 721.565002,655.914246 721.280457,661.396118 
	C721.066406,665.519348 722.501587,666.900940 726.666382,666.866577 
	C747.152649,666.697510 767.642334,666.914368 788.127502,666.689270 
	C792.908508,666.636719 794.560059,668.068237 794.396179,672.913330 
	C794.037292,683.529114 795.241089,682.371826 785.056152,682.394836 
	C766.400818,682.437012 747.745422,682.405396 729.090027,682.408142 
	C721.355103,682.409302 721.353882,682.413452 721.350342,690.378235 
	C721.348145,695.375244 721.586304,700.386780 721.278381,705.364746 
	C721.015503,709.615601 722.705566,710.744324 726.755005,710.722473 
	C752.072266,710.585815 777.390686,710.638245 802.708496,710.715332 
	C804.833862,710.721802 808.080078,709.607239 808.550598,712.853394 
	C809.159058,717.050720 809.880859,721.527771 807.568970,725.502258 
	C806.921143,726.615906 805.107788,726.253967 803.786865,726.254089 
	C772.805664,726.256409 741.824341,726.211243 710.843323,726.287292 
	C707.212280,726.296204 705.779663,724.971130 705.787415,721.325012 
	C705.853577,690.177368 705.851746,659.029480 705.780579,627.881897 
	C705.772644,624.412109 707.143921,623.207703 710.548401,623.239380 
	C730.531616,623.425598 750.516052,623.476257 771.000122,623.572632 
z"/>
<path fill="#000000" opacity="1.000000" stroke="none" 
	d="
M325.948059,669.517090 
	C323.795441,681.675964 321.775146,684.454712 306.387482,696.239075 
	C311.750763,701.363647 317.060669,706.344238 322.260529,711.437073 
	C325.958405,715.058899 327.502411,723.108521 325.097687,725.406372 
	C322.742035,727.657349 314.725250,726.015686 311.116516,722.441711 
	C303.776642,715.172485 296.430908,707.907349 289.211365,700.519592 
	C286.966339,698.222290 284.596405,697.081116 281.309814,697.121948 
	C268.814087,697.277161 256.314026,697.325500 243.818970,697.159546 
	C239.796051,697.106079 238.122131,698.287598 238.328583,702.549500 
	C238.634598,708.866638 238.295425,715.212280 238.447784,721.540649 
	C238.529312,724.926880 237.286133,726.208557 233.819992,726.320312 
	C222.886810,726.672913 222.897430,726.791260 222.900024,715.737427 
	C222.906754,687.243103 222.891953,658.748840 222.920425,630.254517 
	C222.927307,623.374451 223.189957,623.095581 229.865753,623.131165 
	C252.179794,623.250061 274.498749,623.181885 296.805634,623.660461 
	C313.563660,624.019958 325.541748,636.567017 326.065796,653.575745 
	C326.224701,658.734680 326.027802,663.904541 325.948059,669.517090 
M238.921814,640.356750 
	C238.493469,652.968933 239.451965,665.595764 238.493073,678.204651 
	C238.257919,681.296936 240.423401,681.598999 242.795517,681.598267 
	C260.265289,681.593201 277.736053,681.723083 295.204346,681.569397 
	C303.262665,681.498535 308.217682,677.159546 309.970673,669.347168 
	C311.188751,663.918701 310.977570,658.381714 310.310486,652.967773 
	C309.118286,643.291321 304.099121,639.154663 294.160400,639.124023 
	C278.687286,639.076416 263.213715,639.099548 247.740723,639.171021 
	C244.948425,639.183899 242.083771,638.635193 238.921814,640.356750 
z"/>
<path fill="#000000" opacity="1.000000" stroke="none" 
	d="
M427.652649,713.982544 
	C427.652710,685.657532 427.757080,657.828125 427.557129,630.000793 
	C427.521515,625.047058 428.501282,623.075623 434.048492,623.030212 
	C440.035278,622.981201 444.191498,624.509094 448.372345,629.040405 
	C468.708313,651.080933 489.453827,672.743652 510.067535,694.527649 
	C511.192017,695.716003 512.435242,696.792053 513.697815,697.991211 
	C515.352539,696.184631 514.638184,694.275513 514.643066,692.571350 
	C514.703796,671.408386 514.815857,650.243835 514.591431,629.083069 
	C514.542175,624.435974 516.058777,622.989319 520.569885,623.026062 
	C530.304199,623.105347 530.312012,622.921387 530.313477,632.788635 
	C530.317810,661.617188 530.319214,690.445740 530.315552,719.274292 
	C530.314636,726.241333 530.283386,725.927246 523.522339,726.362549 
	C517.738708,726.734924 513.641907,724.960571 509.643066,720.567627 
	C489.567535,698.513611 469.142975,676.777283 448.837463,654.932678 
	C447.372894,653.357178 445.879517,651.808472 444.133209,649.966431 
	C442.848633,651.922241 443.319031,653.750244 443.315857,655.428284 
	C443.275269,676.757996 443.298798,698.087769 443.275543,719.417542 
	C443.268097,726.253296 443.227173,726.253601 436.234985,726.265930 
	C435.401794,726.267395 434.556183,726.168152 433.737457,726.275940 
	C428.845245,726.919983 427.068665,724.674194 427.618042,719.973816 
	C427.829376,718.165466 427.652893,716.311829 427.652649,713.982544 
z"/>
<path fill="#000000" opacity="1.000000" stroke="none" 
	d="
M903.999268,658.991577 
	C911.047729,652.616577 917.827332,646.472961 925.022339,639.952881 
	C922.501526,638.656433 920.196106,639.119934 918.041626,639.115417 
	C896.542969,639.070190 875.044067,639.111328 853.545288,639.096924 
	C846.683533,639.092346 846.681274,639.049805 846.662720,632.077637 
	C846.658264,630.411133 846.764221,628.739014 846.661255,627.079285 
	C846.480713,624.170593 848.030518,623.251465 850.632019,623.340454 
	C880.453125,624.360901 910.269531,622.638611 940.100159,623.212097 
	C950.987610,623.421448 948.778137,623.999268 949.444885,632.874207 
	C949.851135,638.281067 946.797546,640.996033 943.400879,644.062805 
	C919.784424,665.385132 896.237305,686.784302 872.673645,708.165222 
	C872.187500,708.606384 871.770630,709.123901 870.338257,710.660645 
	C873.814575,710.660645 876.321106,710.660278 878.827637,710.660767 
	C900.159790,710.664978 921.493408,710.800903 942.823120,710.574829 
	C947.739746,710.522644 949.619690,711.773865 949.420227,716.985840 
	C949.065430,726.258789 949.361755,726.262878 940.263489,726.261536 
	C911.265076,726.257324 882.266663,726.266663 853.268250,726.252686 
	C846.695557,726.249512 847.085449,726.184814 846.557739,719.596130 
	C846.044006,713.180237 848.230225,708.914978 853.157593,704.647644 
	C870.283508,689.815918 886.912354,674.410278 903.999268,658.991577 
z"/>
<path fill="#000000" opacity="1.000000" stroke="none" 
	d="
M159.348679,624.165894 
	C173.820526,628.521851 182.186661,639.598694 182.283463,654.267212 
	C182.319733,659.762085 182.677963,665.317749 182.027771,670.742432 
	C180.162689,686.302979 167.551498,697.038086 151.284164,697.160156 
	C134.457809,697.286499 117.628288,697.333984 100.803703,697.126831 
	C96.380417,697.072449 94.929070,698.508057 95.156319,702.876587 
	C95.476105,709.024231 95.109787,715.204529 95.278122,721.364258 
	C95.379402,725.070312 93.821930,726.343018 90.226532,726.302734 
	C77.754448,726.162964 79.684128,727.005005 79.651489,716.013550 
	C79.565903,687.190857 79.742233,658.366699 79.496582,629.545837 
	C79.452690,624.395874 81.108421,622.941223 86.034935,623.045349 
	C109.346886,623.538147 132.674866,622.442993 155.982864,623.674622 
	C156.976135,623.727051 157.962479,623.910889 159.348679,624.165894 
M98.078972,681.570618 
	C115.376060,681.590271 132.673325,681.664307 149.970184,681.609680 
	C160.967377,681.574951 166.622330,675.871460 166.679352,665.012329 
	C166.698563,661.353333 166.745972,657.692993 166.671783,654.035461 
	C166.488251,644.985229 161.061691,639.258301 152.101898,639.181274 
	C134.805954,639.032532 117.507431,639.202820 100.210884,639.095215 
	C96.653984,639.073120 95.131653,640.156860 95.195541,643.944092 
	C95.380661,654.918152 95.249840,665.897339 95.297867,676.874268 
	C95.305481,678.614929 94.819374,680.683655 98.078972,681.570618 
z"/>
<path fill="#000000" opacity="1.000000" stroke="none" 
	d="
M591.534912,623.452759 
	C612.495178,622.452148 632.983032,623.699646 653.474548,623.579102 
	C655.807800,623.565369 658.167664,623.350891 660.467773,623.625977 
	C663.305481,623.965515 667.342346,621.677063 668.748840,624.834351 
	C670.396545,628.532898 669.666504,633.060303 669.043030,637.156738 
	C668.687012,639.496399 666.187866,639.053955 664.438110,639.064270 
	C653.605286,639.128113 642.766724,639.313660 631.941162,639.032288 
	C627.257263,638.910522 625.965332,640.610046 625.994934,645.095764 
	C626.158508,669.927856 626.079712,694.761475 626.067322,719.594604 
	C626.064087,726.145630 625.933655,726.249695 619.314941,726.267395 
	C617.814941,726.271423 616.306702,726.153381 614.816650,726.272583 
	C611.251526,726.557922 610.308411,724.867432 610.331238,721.488647 
	C610.498901,696.658264 610.534546,671.826660 610.549866,646.995483 
	C610.554565,639.430298 610.164307,639.122253 602.658630,639.114807 
	C592.492065,639.104736 582.323486,638.991882 572.159851,639.161804 
	C568.115662,639.229431 566.533508,637.849426 566.621155,633.665100 
	C566.867371,621.903198 565.682190,623.149292 576.570740,623.531189 
	C581.396912,623.700439 586.235535,623.515381 591.534912,623.452759 
z"/>
<path fill="#000000" opacity="1.000000" stroke="none" 
	d="
M367.989746,645.000183 
	C367.996246,639.171448 368.105560,633.840088 367.973541,628.514709 
	C367.881134,624.788269 369.260956,623.169434 373.188934,623.056824 
	C384.059479,622.745178 384.053864,622.609497 384.052063,633.393311 
	C384.047241,662.035706 384.045319,690.678040 384.039368,719.320435 
	C384.037964,726.186035 383.976044,726.243713 377.072632,726.276123 
	C375.906982,726.281555 374.727295,726.156311 373.578064,726.292969 
	C369.063995,726.829651 367.907410,724.615662 367.928741,720.436462 
	C368.056000,695.458191 367.990417,670.479004 367.989746,645.000183 
z"/>
<path fill="#000000" opacity="1.000000" stroke="none" 
	d="
M178.464478,779.903687 
	C181.187744,782.236450 180.096848,784.005310 177.833206,785.018250 
	C175.536072,786.046204 175.102875,787.714844 175.209137,789.833374 
	C175.600449,797.634888 175.897446,805.443970 176.484177,813.231079 
	C176.663773,815.614868 177.025970,818.288452 180.219833,819.036987 
	C181.541306,819.346680 181.908997,820.492798 181.634689,821.818237 
	C181.332474,823.278381 180.589493,824.238953 178.992798,824.303467 
	C174.841110,824.471069 170.688263,824.779907 166.537918,824.750000 
	C163.865707,824.730774 163.190674,822.361389 164.687515,821.001831 
	C170.062286,816.119812 167.201263,810.168762 167.325745,804.642334 
	C167.388672,801.849060 166.842453,799.041992 166.475876,795.250305 
	C163.436539,804.216980 160.685883,812.352051 157.918991,820.481567 
	C157.172195,822.675903 156.680252,825.144409 153.588654,825.177307 
	C150.346130,825.211792 150.174255,822.522644 149.456863,820.397766 
	C146.755920,812.397583 144.104736,804.380615 140.739822,796.444763 
	C140.273315,802.638733 139.791809,808.831665 139.349792,815.027405 
	C139.223495,816.797546 139.531601,818.364014 141.617188,818.901855 
	C143.292374,819.333984 144.180130,820.264526 143.726685,822.173828 
	C143.219467,824.309692 141.740952,824.484985 139.930557,824.455505 
	C136.939819,824.406799 133.945084,824.471741 130.954651,824.569092 
	C127.505692,824.681396 126.810013,822.230225 128.684799,820.573730 
	C132.617554,817.098999 132.518005,812.723816 132.944275,808.299561 
	C133.517532,802.349731 134.138885,796.404602 134.718323,790.455322 
	C134.959915,787.974731 134.709671,785.803711 131.720825,784.994141 
	C130.263412,784.599304 129.672318,783.392944 129.945419,781.858276 
	C130.237198,780.218750 131.427750,779.751892 132.863373,779.742615 
	C136.690262,779.718018 140.517517,779.758179 144.344543,779.746277 
	C147.110733,779.737610 147.357803,782.004089 147.933685,783.825256 
	C150.230087,791.087158 152.432922,798.378662 155.704803,805.812805 
	C157.852890,799.313843 160.314545,792.897095 162.046631,786.289062 
	C163.355789,781.294434 165.647797,778.786316 171.054214,779.665771 
	C173.327042,780.035522 175.702454,779.774597 178.464478,779.903687 
z"/>
<path fill="#000000" opacity="1.000000" stroke="none" 
	d="
M331.500305,823.962952 
	C323.004395,826.746765 319.657654,825.575439 315.217468,818.525330 
	C312.240906,813.799194 309.328552,809.032715 305.310608,804.569641 
	C305.310608,808.165222 305.303223,811.760864 305.313934,815.356445 
	C305.318848,816.996826 305.841858,818.379822 307.624146,818.739014 
	C309.612457,819.139771 310.545105,820.165710 310.145905,822.227295 
	C309.704041,824.509277 307.883514,824.351257 306.240112,824.362915 
	C301.129150,824.399292 296.017761,824.376282 291.221375,824.376282 
	C290.260834,822.077271 290.213379,820.306213 291.692596,819.606506 
	C295.957092,817.589233 295.658691,813.925903 295.634308,810.227051 
	C295.595825,804.394287 295.665894,798.560669 295.604309,792.728333 
	C295.570770,789.548279 296.660034,785.860107 291.896729,784.691467 
	C290.619720,784.378174 290.736725,782.804199 291.073273,781.636475 
	C291.445953,780.343506 292.464447,779.791138 293.730286,779.781677 
	C298.395020,779.746704 303.078217,779.503174 307.718964,779.834717 
	C311.035645,780.071838 311.070129,782.892212 309.197998,784.393738 
	C303.880859,788.657776 306.040253,794.234985 305.814453,799.577942 
	C310.265839,795.824036 314.265106,791.830505 317.357666,787.106995 
	C316.130524,785.019836 312.927063,784.641357 314.079041,781.693604 
	C315.183472,778.867676 317.661743,779.828979 319.676666,779.727539 
	C322.336334,779.593750 325.009369,779.645874 327.673859,779.719482 
	C329.098328,779.758850 330.926483,779.318726 331.426178,781.301025 
	C331.860535,783.024170 331.346741,784.593018 329.769958,785.668945 
	C325.436554,788.625916 322.523163,792.988403 318.871552,796.612488 
	C316.014923,799.447510 316.047180,801.860840 318.427460,804.804565 
	C322.554199,809.908203 324.717041,816.655762 331.310699,819.705627 
	C333.014008,820.493469 332.342773,822.274780 331.500305,823.962952 
z"/>
<path fill="#000000" opacity="1.000000" stroke="none" 
	d="
M230.527588,781.362183 
	C233.691422,778.813171 237.198212,779.764038 240.420624,779.414856 
	C242.741425,779.163391 242.994125,781.475281 243.490097,783.264465 
	C246.061264,792.540100 248.669510,801.805664 251.318619,811.059387 
	C252.223785,814.221191 252.769928,817.615967 256.462158,819.091614 
	C257.626953,819.557129 257.947174,820.772461 257.654663,822.070068 
	C257.308807,823.604187 256.360443,824.274109 254.828125,824.323608 
	C249.849335,824.484314 244.872086,824.694641 239.892975,824.842285 
	C238.503723,824.883484 237.168991,824.627625 236.864502,822.933533 
	C236.566513,821.275635 237.076309,819.810120 238.735001,819.308411 
	C241.683121,818.416626 242.023270,816.577576 241.366577,813.915039 
	C240.605820,810.830444 238.575607,810.287598 235.785660,810.254150 
	C228.427475,810.166077 227.673874,810.716370 227.063416,817.648438 
	C227.265869,817.904907 227.421814,818.240173 227.684509,818.400208 
	C229.515732,819.515808 233.460327,818.298401 232.514679,822.461182 
	C231.729370,825.918213 228.873718,824.416687 226.732468,824.420227 
	C223.407700,824.425781 220.079697,824.432434 216.758820,824.297546 
	C213.082733,824.148315 212.698227,821.369324 214.630585,819.637695 
	C219.776352,815.026489 220.185974,808.444763 222.574295,802.732544 
	C225.454071,795.844971 227.735550,788.707336 230.527588,781.362183 
M235.371735,791.605957 
	C232.481827,794.912537 232.291779,799.144531 230.942047,803.097900 
	C233.619278,804.055847 235.799957,804.049316 238.178726,803.019775 
	C238.012390,799.178284 236.708298,795.647461 235.371735,791.605957 
z"/>
<path fill="#000000" opacity="1.000000" stroke="none" 
	d="
M732.421021,785.485474 
	C734.248352,780.729370 741.011169,777.638733 744.971558,779.465271 
	C746.537109,780.187317 746.772583,781.755432 747.171387,783.174255 
	C749.866821,792.761963 752.552124,802.352600 755.210999,811.950562 
	C756.015747,814.855469 756.666809,817.772278 759.998413,819.014282 
	C761.563599,819.597900 761.445740,821.073547 761.191956,822.432739 
	C760.870972,824.151550 759.518372,824.309082 758.144104,824.333496 
	C753.328674,824.419067 748.504517,824.110657 743.705566,824.865173 
	C742.357239,825.077148 740.898438,824.783203 740.469238,823.208374 
	C740.040466,821.635132 740.437378,820.021606 742.119202,819.501099 
	C745.498657,818.455261 745.789734,816.488037 744.907837,813.373230 
	C743.932434,809.928162 741.436707,810.221008 738.992920,810.331726 
	C736.169006,810.459778 732.754761,809.335327 731.354736,813.271301 
	C730.424744,815.885864 729.253357,818.538696 733.674500,819.074036 
	C735.669861,819.315674 736.549805,820.583862 736.137268,822.609070 
	C735.738525,824.566895 734.229736,824.641357 732.669373,824.605713 
	C728.515442,824.510864 724.361084,824.432129 720.207703,824.316711 
	C716.872375,824.223938 716.219727,821.626892 717.994019,820.045105 
	C723.274963,815.336975 723.710510,808.579834 726.206970,802.736084 
	C728.552551,797.245422 730.280518,791.490967 732.421021,785.485474 
M738.352722,791.935913 
	C737.103821,795.626160 734.989014,799.082703 735.057922,803.153442 
	C741.843567,804.326965 742.517456,803.653687 740.837708,797.399963 
	C740.302307,795.406555 740.309021,793.186890 738.352722,791.935913 
z"/>
<path fill="#000000" opacity="1.000000" stroke="none" 
	d="
M396.709869,824.931091 
	C387.476715,824.292908 378.673096,823.880676 369.863007,824.808594 
	C368.340393,824.968872 366.673035,825.221069 366.159607,823.293396 
	C365.740265,821.718994 366.336823,820.229370 367.861786,819.498169 
	C370.818146,818.080688 370.983551,815.477112 371.025116,812.743835 
	C371.138977,805.255859 371.304871,797.768555 371.378723,790.280273 
	C371.400421,788.080261 371.226410,785.899963 368.499817,785.113220 
	C366.888062,784.648254 366.688873,783.332581 366.993225,781.895569 
	C367.325653,780.325867 368.457092,779.778259 369.922760,779.737793 
	C379.568512,779.471252 389.229431,780.142334 398.867371,779.275452 
	C399.324524,779.234253 400.030518,779.361511 400.249817,779.672119 
	C402.721344,783.172974 399.808960,786.684570 400.174194,790.232361 
	C400.347687,791.917664 399.195953,793.005676 397.447113,793.204346 
	C395.107971,793.470032 393.209381,793.283386 392.770416,790.225403 
	C392.119873,785.693054 388.402283,786.520935 385.338318,786.378906 
	C381.869812,786.217957 381.947662,788.964966 381.597992,791.184998 
	C380.552643,797.821045 381.897888,799.178833 388.619812,798.441650 
	C389.610840,798.332886 390.585236,798.060364 391.576965,797.972656 
	C393.629517,797.790955 395.934296,797.564514 395.760315,800.617126 
	C395.627502,802.946838 395.257904,805.447693 391.864471,805.213989 
	C390.870117,805.145447 389.867462,805.198364 388.868591,805.195312 
	C381.401337,805.172119 379.375763,807.946533 381.277893,815.296021 
	C381.822571,817.400574 383.207245,817.912781 384.961182,817.843628 
	C388.171051,817.717163 391.837128,818.742920 393.810242,814.915833 
	C394.339447,813.889343 394.475555,812.631653 395.108032,811.692993 
	C396.285187,809.946106 398.220947,809.776978 400.036560,810.223267 
	C401.929535,810.688599 401.985565,812.327393 401.535370,813.870605 
	C400.422272,817.686035 402.552795,822.808655 396.709869,824.931091 
z"/>
<path fill="#000000" opacity="1.000000" stroke="none" 
	d="
M662.017456,779.704956 
	C668.503113,779.581848 674.499817,779.588379 680.480347,779.280334 
	C683.408813,779.129395 684.517761,780.089966 684.066040,782.983337 
	C683.707520,785.279602 683.433350,787.592407 683.219788,789.906921 
	C683.016907,792.106506 681.907288,793.194275 679.692322,793.257935 
	C677.688354,793.315491 676.074341,793.035339 675.746704,790.551636 
	C675.054138,785.301575 670.890930,786.346191 667.598999,786.461121 
	C663.958862,786.588257 664.431274,789.678894 664.352966,792.112244 
	C664.133362,798.936890 664.682983,799.308411 672.928772,798.208496 
	C678.225891,797.501892 679.780884,798.940247 678.300842,802.999146 
	C677.657043,804.764709 676.463928,805.207275 674.859009,805.219055 
	C673.026978,805.232483 671.183838,805.342224 669.364746,805.186279 
	C665.615234,804.864624 663.502258,806.210388 664.085327,810.232605 
	C664.472900,812.906494 662.489624,816.588379 666.818237,817.756348 
	C671.658081,819.062256 675.621277,817.442139 677.358215,813.084229 
	C678.493652,810.235535 680.518921,809.679199 682.884460,810.185120 
	C685.518616,810.748596 684.383911,813.048035 684.338806,814.761108 
	C684.334351,814.927185 684.310791,815.093018 684.291382,815.258423 
	C683.112183,825.282227 683.121399,825.117554 673.158386,824.556213 
	C666.520203,824.182190 659.847107,823.951538 653.200439,824.749878 
	C651.582764,824.944153 649.653442,825.472778 649.039001,823.241272 
	C648.542969,821.440063 649.346313,819.904602 651.072205,819.133484 
	C653.728882,817.946533 653.859131,815.671143 653.864563,813.271606 
	C653.880798,806.109070 653.945862,798.946411 653.914612,791.784119 
	C653.902710,789.063049 654.659973,786.005005 650.860046,784.765076 
	C649.620422,784.360474 649.708313,782.853333 649.949951,781.678406 
	C650.230408,780.315247 651.267944,779.809021 652.529785,779.784302 
	C655.526489,779.725464 658.524414,779.727600 662.017456,779.704956 
z"/>
<path fill="#000000" opacity="1.000000" stroke="none" 
	d="
M804.617798,805.460205 
	C803.559692,804.894897 802.832031,804.492249 802.104553,804.089478 
	C797.316040,801.438599 793.613342,797.954346 794.262756,791.938538 
	C794.955627,785.520142 799.254639,782.021240 804.991455,780.093567 
	C810.534729,778.230896 816.156189,778.734009 821.722534,780.094849 
	C824.091553,780.674011 825.528198,781.912354 824.822205,784.759338 
	C824.306274,786.840210 824.236511,789.029419 823.926453,791.164307 
	C823.585449,793.512268 822.218750,794.605408 819.824097,794.560059 
	C817.663574,794.519104 816.932312,793.268616 816.843872,791.368591 
	C816.645874,787.115723 813.862976,786.185181 810.317078,786.380981 
	C808.242554,786.495605 806.274780,787.157104 805.497253,789.295593 
	C804.619385,791.710083 805.824585,793.617859 807.801941,794.804993 
	C811.075439,796.770081 814.477783,798.527832 817.873352,800.280823 
	C822.835327,802.842529 826.184021,806.411804 825.589905,812.436584 
	C825.012573,818.292114 821.265747,821.596191 816.130615,823.549561 
	C810.000610,825.881470 803.791138,825.786926 797.545776,823.844055 
	C794.439331,822.877625 793.325928,820.921570 793.917542,817.787537 
	C794.255554,815.997131 794.578430,814.182434 794.649841,812.368591 
	C794.738831,810.107422 795.804016,809.052368 797.993164,808.882446 
	C800.384033,808.696716 800.964600,810.008728 801.410217,812.122681 
	C802.510925,817.343567 805.895630,819.151184 810.996338,817.643433 
	C812.708923,817.137207 814.007568,816.195923 814.472229,814.420105 
	C814.953613,812.580261 814.195801,811.044922 812.710022,810.095032 
	C810.196960,808.488281 807.543091,807.101807 804.617798,805.460205 
z"/>
<path fill="#000000" opacity="1.000000" stroke="none" 
	d="
M886.370544,787.646240 
	C886.488098,786.398315 886.120056,785.680725 885.381042,785.187988 
	C883.943542,784.229553 883.408508,782.897217 884.016479,781.310608 
	C884.700073,779.526672 886.406311,779.764709 887.865173,779.741577 
	C891.026306,779.691589 894.188904,779.715942 897.350647,779.737671 
	C898.703003,779.746948 900.170593,779.786255 900.626709,781.384949 
	C901.012878,782.738525 900.676514,784.242981 899.532898,785.011536 
	C892.438599,789.778992 890.429504,797.910828 886.366882,804.673584 
	C884.696045,807.454712 884.234741,810.546448 884.323608,813.795288 
	C884.401184,816.626953 884.971130,818.756958 888.392822,818.781006 
	C890.134155,818.793274 891.259521,819.563843 891.092896,821.528809 
	C890.921570,823.548279 889.812195,824.444458 887.800964,824.433777 
	C882.317627,824.404602 876.822937,823.997192 871.367065,824.985962 
	C870.195740,825.198181 868.843506,825.079285 868.525024,823.647217 
	C868.193298,822.155762 868.315796,820.357178 869.930664,819.761902 
	C876.388245,817.381104 875.397095,812.350037 873.842773,807.768616 
	C871.598450,801.153564 867.919556,795.137024 864.488831,789.051697 
	C863.644104,787.553223 862.253784,786.603271 860.681152,785.951843 
	C858.846619,785.192078 858.271729,783.888916 858.674805,781.958984 
	C859.078186,780.026978 860.451416,779.743896 862.033203,779.735046 
	C866.692749,779.708862 871.352661,779.680847 876.011902,779.717102 
	C877.132324,779.725830 878.457825,779.603149 878.962463,781.015564 
	C879.374084,782.167480 879.479980,783.707397 878.394287,784.210632 
	C873.464294,786.495422 876.116272,789.568481 877.434448,792.409485 
	C878.315247,794.307922 878.763733,796.534180 881.012573,798.050598 
	C883.275513,794.902954 884.760254,791.437683 886.370544,787.646240 
z"/>
<path fill="#000000" opacity="1.000000" stroke="none" 
	d="
M572.315613,791.715759 
	C572.185120,794.602417 570.605347,795.190002 568.549866,795.125122 
	C566.366028,795.056274 565.994080,793.479858 565.632507,791.744080 
	C565.367249,790.471130 564.933716,789.158630 564.251160,788.066162 
	C563.402527,786.708008 561.958130,786.151123 560.336853,786.503235 
	C558.689758,786.860901 558.427002,788.231567 558.415771,789.597473 
	C558.346313,798.079956 558.306885,806.562744 558.289429,815.045471 
	C558.285095,817.154663 559.212708,818.580811 561.496948,818.685242 
	C563.670654,818.784607 565.591064,819.073792 565.189697,822.009766 
	C564.783081,824.984741 562.516724,824.393982 560.585205,824.417297 
	C555.431641,824.479675 550.277588,824.507812 545.124329,824.586060 
	C543.642517,824.608521 541.853699,825.069824 541.397278,823.112732 
	C540.920227,821.067017 541.862671,819.386658 544.041809,819.056702 
	C547.474915,818.536987 548.503784,816.062622 548.356567,813.320496 
	C547.963684,806.000305 548.438904,798.700439 548.368469,791.395203 
	C548.350037,789.488586 548.773315,786.604309 545.541199,786.444031 
	C542.661499,786.301147 541.503662,788.216431 541.125854,790.836121 
	C540.721130,793.642395 539.402649,795.703308 536.190308,795.014343 
	C532.949219,794.319153 533.984619,791.718994 534.458923,789.752380 
	C535.255859,786.447937 532.879578,781.876282 536.179810,780.024841 
	C538.701965,778.609802 542.639771,779.732849 545.947571,779.700378 
	C553.263550,779.628601 560.588379,779.726318 567.890991,779.372070 
	C571.068359,779.217896 572.159912,780.443115 572.213989,783.272278 
	C572.264954,785.933105 572.293884,788.594421 572.315613,791.715759 
z"/>
<path fill="#000000" opacity="1.000000" stroke="none" 
	d="
M496.266602,791.303101 
	C495.953247,798.901672 495.638672,806.049561 495.353027,813.198730 
	C495.242798,815.957581 495.155334,818.687073 499.045166,818.988708 
	C500.693085,819.116455 501.249664,820.296814 500.978119,821.856079 
	C500.717224,823.354370 499.832611,824.245789 498.284790,824.305115 
	C493.299133,824.496399 488.312744,824.676086 483.325317,824.810364 
	C482.070251,824.844116 481.008026,824.413208 480.825378,822.939331 
	C480.650757,821.530701 480.851990,820.184326 482.256317,819.510254 
	C485.557312,817.925537 485.782135,815.088135 485.736572,811.928955 
	C485.633362,804.768005 485.699982,797.604492 485.706512,790.442017 
	C485.708679,788.064880 485.872833,785.660828 482.635101,785.086548 
	C481.276245,784.845520 480.775177,783.754822 480.934357,782.446716 
	C481.113007,780.978333 481.873901,779.864990 483.452972,779.837708 
	C488.446625,779.751282 493.442047,779.748779 498.436768,779.751160 
	C499.487915,779.751648 500.463989,780.111694 500.713074,781.281738 
	C501.013000,782.690735 500.711823,784.245361 499.400818,784.759155 
	C496.416443,785.928650 496.181091,788.245239 496.266602,791.303101 
z"/>
<path fill="#000000" opacity="1.000000" stroke="none" 
	d="
M501.000061,297.717651 
	C544.993286,297.716217 588.486572,297.711548 631.979797,297.716522 
	C642.132629,297.717682 644.782410,299.748230 647.601318,309.461761 
	C655.206787,335.669678 662.843262,361.868652 670.440430,388.078979 
	C672.085815,393.755646 671.821045,394.138367 666.012390,394.139221 
	C563.861572,394.154358 461.710815,394.150970 359.560028,394.134705 
	C357.926453,394.134430 356.201630,394.398438 354.307343,392.872437 
	C355.348602,385.403412 358.223602,378.123993 360.325134,370.683990 
	C366.160614,350.025024 372.279053,329.445862 378.310181,308.842346 
	C380.817230,300.277710 384.170685,297.725708 393.016785,297.721344 
	C428.844543,297.703705 464.672272,297.716431 501.000061,297.717651 
M574.500061,314.338196 
	C516.340759,314.340302 458.181335,314.383423 400.022308,314.258881 
	C395.823761,314.249908 393.780487,315.438049 392.662659,319.625061 
	C389.830261,330.234100 386.494537,340.708008 383.418549,351.253021 
	C381.013031,359.499573 378.694672,367.771484 376.065979,376.983917 
	C467.938171,378.569427 558.908508,376.553558 650.231873,377.292664 
	C649.986389,375.905243 649.919800,375.099976 649.698303,374.339905 
	C644.249390,355.641205 638.734009,336.961639 633.369263,318.238892 
	C632.444580,315.011658 630.549194,314.276947 627.493225,314.294128 
	C610.162659,314.391571 592.831238,314.339935 574.500061,314.338196 
z"/>
</svg>